# xmcd
#
# Track frame offsets: 
#        150
#        23892
#        38335
#        56225
#        71275
#        90060
#        120640
#        137975
#        154837
#        175077
#        194327
#        217165
#
# Disc length: 3051 seconds
#
# Revision: 2
# Processed by: cddbd v1.5.2PL0 Copyright (c) Steve Scherf et al.
# Submitted via: ExactAudioCopy v0.95a5
#
DISCID=9f0be90c
DTITLE=胡德夫 - 匆匆
DYEAR=2005
DGENRE=Country
TTITLE0=太平洋的风
TTITLE1=牛背上的小孩
TTITLE2=大武山美丽的妈妈
TTITLE3=枫叶
TTITLE4=最最遥远的路
TTITLE5=飞鱼 云豹 台北盆地
TTITLE6=为什么
TTITLE7=心肝儿
TTITLE8=Standing on My Land
TTITLE9=美丽岛
TTITLE10=美丽的稻穗
TTITLE11=匆匆
EXTD=
EXTT0=太平洋的风
EXTT1=
EXTT2=
EXTT3=
EXTT4=
EXTT5=
EXTT6=
EXTT7=
EXTT8=
EXTT9=
EXTT10=
EXTT11=
PLAYORDER=
